# xmcd
#
# Track frame offsets:
#	150
#	14089
#	35469
#	49432
#	69803
#	82371
#	91515
#	104020
#	119640
#	135341
#	150472
#
# Disc length: 2352 seconds
#
# Revision: 0
# Processed by: cddbd v1.5.1PL0 Copyright (c) Steve Scherf et al.
# Submitted via: EasyCDDAExtractor 4.5.0.2
#
DISCID=91092e0b
DTITLE=Jimmy Alligator B.B. - Rail Road
DYEAR=2001
DGENRE=Blues
TTITLE0=Texas blues (Marshall Qwens)
TTITLE1=Down and out blues
TTITLE2=Kansas City blues
TTITLE3=Hurts me too( mel London)
TTITLE4=Big Mary`s
TTITLE5=I`m очень sexy man(Mojo Nixon)
TTITLE6=The blues ain't nothing
TTITLE7=Wild things
TTITLE8=Police dog blues(Blind Blake)
TTITLE9=Папараци
TTITLE10=Rail Road
EXTD=
EXTT0=
EXTT1=
EXTT2=
EXTT3=
EXTT4=
EXTT5=
EXTT6=
EXTT7=
EXTT8=
EXTT9=
EXTT10=
PLAYORDER=
